PathFileType	4	(X/Y/Z)	Kaydara																																																																																																																									
DataRate	CameraRate	NumFrames	NumMarkers	Units	OrigDataRate	OrigDataStartFrame	OrigNumFrames																																																																																																																					
30	30	4	41	mm	30	245	266																																																																																																																					
Frame#	Time	SALE_LFHD			SALE_RFHD			SALE_LBHD			SALE_RBHD			SALE_LFTShould			SALE_RFTShould			SALE_LRRShould			SALE_RRRShould			SALE_T10			SALE_STRN			SALE_TRUN			SALE_LSHO			SALE_LUPA			SALE_LELB			SALE_LFRM			SALE_LWRA			SALE_LWRB			SALE_LFIN			SALE_RSHO			SALE_RUPA			SALE_RELB			SALE_RFRM			SALE_RWRB			SALE_RFIN			SALE_LFWT			SALE_RFWT			SALE_LBWT			SALE_RBWT			SALE_LTHI			SALE_LKNE			SALE_RWRA			SALE_LSHN			SALE_LANK			SALE_LHEE			SALE_LTOE			SALE_RTHI			SALE_RKNE			SALE_RSHN			SALE_RANK			SALE_RHEE			SALE_RTOE		
		X1	Y1	Z1	X2	Y2	Z2	X3	Y3	Z3	X4	Y4	Z4	X5	Y5	Z5	X6	Y6	Z6	X7	Y7	Z7	X8	Y8	Z8	X9	Y9	Z9	X10	Y10	Z10	X11	Y11	Z11	X12	Y12	Z12	X13	Y13	Z13	X14	Y14	Z14	X15	Y15	Z15	X16	Y16	Z16	X17	Y17	Z17	X18	Y18	Z18	X19	Y19	Z19	X20	Y20	Z20	X21	Y21	Z21	X22	Y22	Z22	X23	Y23	Z23	X24	Y24	Z24	X25	Y25	Z25	X26	Y26	Z26	X27	Y27	Z27	X28	Y28	Z28	X29	Y29	Z29	X30	Y30	Z30	X31	Y31	Z31	X32	Y32	Z32	X33	Y33	Z33	X34	Y34	Z34	X35	Y35	Z35	X36	Y36	Z36	X37	Y37	Z37	X38	Y38	Z38	X39	Y39	Z39	X40	Y40	Z40	X41	Y41	Z41
																																																																																																																												
200	8.133	126.05283	1587.79495	1668.01117	-2.60391	1568.33206	1667.11563	121.62605	1602.27646	1536.7189	-2.66167	1581.73004	1542.31857	164.96332	1335.04059	1581.4859	26.07622	1328.55698	1598.60611	145.34835	1396.60019	1473.74863	-4.44124	1397.13577	1498.41965	64.26996	1245.89546	1409.13254	99.8805	1258.99788	1634.26178	105.36292	1171.67686	1672.04346	271.67259	1365.89157	1501.8985	312.89867	1149.97253	1478.90915	294.58445	1040.55878	1459.5163	327.65007	935.80826	1477.51099	275.01595	791.30852	1538.76816	336.28422	788.293	1491.02295	336.13636	738.93524	1533.03696	-89.55812	1358.91205	1551.58096	-131.93958	1130.21332	1493.28003	-159.53213	1031.23604	1541.9931	-157.46204	917.60414	1534.48914	-177.35565	782.89322	1586.25229	-181.09644	745.63164	1643.52402	221.76666	921.79657	1598.35205	-52.34922	937.84538	1625.11169	151.38365	975.09644	1432.3645	-28.3463	994.57466	1448.80051	193.46304	600.57537	1487.88712	215.86868	445.04341	1588.98529	-125.54922	793.94402	1639.77158	206.95795	288.40042	1447.46628	191.43585	198.40368	1280.53787	143.49246	212.30522	1208.19115	178.05424	62.58675	1326.90948	-78.46948	677.92336	1480.45609	-38.23683	525.35786	1586.43921	28.53194	340.28419	1577.10861	8.69016	83.78151	1539.64676	26.70169	39.17797	1665.34058	60.5227	26.27723	1474.58694
201	8.167	123.77794	1586.03653	1695.56717	-4.69173	1565.36255	1694.48883	118.77336	1604.15237	1564.72702	-5.33709	1582.45117	1570.20325	163.94527	1336.39114	1603.03726	25.10107	1330.12375	1622.60925	141.69672	1397.51755	1495.42755	-7.3622	1398.64777	1522.94342	59.00522	1247.23251	1432.47849	99.15294	1260.21217	1656.18591	105.04512	1172.91496	1693.88992	268.49508	1366.55914	1520.16037	307.91634	1150.87296	1494.01611	288.62875	1041.67908	1475.03357	322.3473	936.50101	1490.94879	272.51064	792.07748	1555.64606	331.18103	789.02924	1504.65912	334.6347	741.19621	1547.7533	-91.42537	1360.79605	1577.77466	-135.38197	1130.961	1525.12253	-162.30505	1033.24356	1576.72089	-160.91303	919.43489	1572.34375	-180.1733	785.83038	1626.39908	-183.28913	750.17975	1684.59946	217.90546	923.96408	1621.86111	-57.35488	938.09822	1645.63385	149.71781	975.56427	1454.60373	-30.21895	994.24057	1469.5488	195.27914	599.34101	1527.54105	213.59612	450.39978	1638.42407	-127.32449	797.79945	1678.61572	204.69378	286.00454	1505.3511	189.24557	187.07315	1344.07852	140.8991	194.674	1269.78195	178.42281	57.98821	1402.68478	-77.7526	679.18442	1496.43188	-38.32889	524.78298	1599.4194	28.85945	339.45061	1585.80429	9.15765	84.07761	1540.5011	26.57034	39.04659	1665.42679	61.19337	26.56208	1474.77631
202	8.2	123.32558	1583.97614	1722.75391	-5.35806	1563.51303	1722.20428	117.08604	1606.77277	1592.686	-7.00902	1584.90891	1598.31787	162.64759	1338.43719	1623.89343	23.92763	1332.80243	1645.5603	138.31335	1399.23065	1516.79169	-10.01034	1400.73547	1546.33179	54.51374	1249.14833	1454.96002	97.70544	1262.71461	1677.89413	103.67373	1175.41763	1715.60654	265.36596	1368.44955	1538.81927	303.11661	1153.19969	1509.62936	282.74029	1044.18472	1491.05911	317.32746	938.66745	1506.47522	270.9907	795.18845	1575.6134	326.5731	791.21994	1521.23245	332.91172	744.43192	1564.91333	-93.29045	1363.69034	1602.42706	-137.98941	1132.97424	1555.22308	-164.27464	1036.4785	1609.50775	-162.91771	922.46033	1607.73651	-181.58405	790.35934	1665.5423	-184.02771	756.04408	1724.38812	214.3862	927.9068	1644.89105	-61.73678	938.00354	1665.52979	148.52682	977.09106	1476.51871	-31.30984	993.96011	1489.63058	197.38239	601.09386	1563.4642	209.01829	457.85759	1684.53857	-127.85174	803.32047	1716.64581	201.4427	281.92759	1565.7692	188.1237	168.8954	1413.57437	140.26651	166.84713	1336.67542	175.64167	50.23371	1487.69897	-75.6369	680.47287	1511.62476	-38.64067	524.02046	1612.06345	29.55693	338.25485	1594.52408	9.72398	84.58891	1541.59134	26.38698	38.69551	1665.34241	61.83833	26.91717	1475.05035
203	8.233	124.03505	1581.96732	1748.86658	-4.61331	1562.54623	1749.00116	116.69034	1608.69278	1619.58191	-7.53907	1587.75879	1625.95276	160.70499	1340.25894	1645.22186	22.00016	1335.17151	1668.14087	135.17442	1400.80734	1538.45596	-12.57737	1402.82379	1569.32007	50.66112	1251.1586	1476.98532	95.71623	1264.80301	1699.68842	101.46283	1177.49519	1737.36603	262.33271	1370.14587	1558.78098	299.18604	1155.41588	1527.21146	278.24043	1046.58165	1508.38531	313.53899	940.68619	1524.12521	270.3237	798.71323	1597.77908	323.01079	793.27042	1540.32852	330.83584	747.01309	1584.42825	-95.47744	1366.29623	1625.85098	-140.41615	1134.73854	1583.1073	-165.96947	1039.33144	1639.91257	-163.79601	925.05234	1641.32492	-182.06652	795.21042	1703.28766	-183.00375	762.26128	1763.01666	211.98055	931.86264	1667.20169	-64.44459	936.82556	1685.17151	147.48829	978.97758	1497.9216	-32.54546	993.54828	1509.72809	199.11882	603.66734	1597.18628	203.45404	466.19228	1727.37076	-127.13104	809.39194	1753.42773	197.70029	279.1395	1625.46265	186.83388	150.42969	1485.89081	140.37169	137.43185	1408.02643	172.86932	45.90171	1577.0636	-72.63026	680.75142	1527.0047	-37.91203	523.12908	1624.68231	31.33915	335.45284	1601.12534	10.48429	85.13661	1542.9393	26.39872	38.60564	1665.71213	62.26999	27.99137	1475.36331
